<svg xmlns="http://www.w3.org/2000/svg" viewBox="0 0 32 32"><circle cx="16" cy="16" r="16" fill="#F7931A"/><path fill="#fff" d="M18.8 14.2c.3-2-1.2-3.1-3.3-3.8l.8-3-1.5-.4-.8 3c-.4-.1-.8-.2-1.2-.3l.8-3-1.5-.4-.8 3-1.2-.3-.5 1.5 1.2.3c.7.2 1.4.4 1.3.7l-1.3 5.2c-.1.2-.4.3-.7.2l-1.8 5.4 1.5.4.8-3c.4.1.8.2 1.2.3l-.8 3 1.5.4.8-3c2.5.5 4.4.3 5.2-2 .6-1.9-.1-3-2-3.7 1.4-.3 2.5-1.2 2.1-3.2zm-3.8 5.5c-.5 1.9-3.7.9-4.8.6l.9-3.5c1.1.3 4.5.8 3.9 2.9zm.5-5.6c-.4 1.7-3.1.8-4 .6l.8-3.2c.9.2 3.8.7 3.2 2.6z"/></svg>
